<mxfile host="drawio-plugin" modified="2024-01-24T12:55:05.521Z" agent="5.0 (Windows NT 10.0; Win64; x64) AppleWebKit/537.36 (KHTML, like Gecko) Chrome/111.0.0.0 Safari/537.36" etag="L5wjEs-sfq1m4eX3DqmI" version="20.5.3" type="embed"><diagram name="Page-1" id="EejpOHcNsHCEbI0K28gb"><mxGraphModel dx="779" dy="449" grid="1" gridSize="10" guides="1" tooltips="1" connect="1" arrows="1" fold="1" page="1" pageScale="1" pageWidth="827" pageHeight="1169" math="0" shadow="0"><root><mxCell id="0"/><mxCell id="1" parent="0"/><mxCell id="5hK_h3T2M-ArZRw3g8xw-4" value="&lt;p style=&quot;margin: 4px 0px 0px; text-align: center;&quot;&gt;&lt;b style=&quot;&quot;&gt;Club&lt;/b&gt;&lt;/p&gt;&lt;hr&gt;&lt;p style=&quot;margin:0px;margin-left:8px;&quot;&gt;&lt;u&gt;numClub&lt;/u&gt;&lt;br&gt;nomClub&lt;br&gt;adresse&lt;/p&gt;&lt;p style=&quot;margin:0px;margin-left:8px;&quot;&gt;numtéléphone&lt;/p&gt;&lt;p style=&quot;margin:0px;margin-left:8px;&quot;&gt;nombreAdhèrents&lt;/p&gt;&lt;p style=&quot;margin:0px;margin-left:8px;&quot;&gt;ville&lt;/p&gt;&lt;p style=&quot;margin:0px;margin-left:8px;&quot;&gt;département&lt;/p&gt;&lt;p style=&quot;margin:0px;margin-left:8px;&quot;&gt;région&lt;/p&gt;" style="verticalAlign=top;align=left;overflow=fill;fontSize=12;fontFamily=Helvetica;html=1;whiteSpace=wrap;" parent="1" vertex="1"><mxGeometry x="10" y="80" width="160" height="180" as="geometry"/></mxCell><mxCell id="5hK_h3T2M-ArZRw3g8xw-5" value="&lt;p style=&quot;margin: 4px 0px 0px; text-align: center;&quot;&gt;&lt;b style=&quot;&quot;&gt;&lt;font style=&quot;font-size: 12px;&quot;&gt;Utilitsateur&lt;/font&gt;&lt;/b&gt;&lt;/p&gt;&lt;hr style=&quot;&quot;&gt;&lt;p style=&quot;margin: 0px 0px 0px 8px;&quot;&gt;&lt;u style=&quot;box-sizing: border-box; font-family: Helvetica, Arial, freesans, sans-serif;&quot;&gt;&lt;span style=&quot;box-sizing: border-box;&quot;&gt;&lt;font style=&quot;font-size: 12px;&quot;&gt;numUtilisateur&lt;/font&gt;&lt;/span&gt;&lt;/u&gt;&lt;/p&gt;&lt;p style=&quot;margin: 0px 0px 0px 8px;&quot;&gt;&lt;span style=&quot;font-family: Helvetica, Arial, freesans, sans-serif; background-color: initial;&quot;&gt;nom&lt;/span&gt;&lt;br&gt;&lt;/p&gt;&lt;p style=&quot;margin: 0px 0px 0px 8px;&quot;&gt;&lt;span style=&quot;box-sizing: border-box; font-family: Helvetica, Arial, freesans, sans-serif;&quot;&gt;&lt;font style=&quot;font-size: 12px;&quot;&gt;prénom&lt;/font&gt;&lt;/span&gt;&lt;/p&gt;&lt;p style=&quot;margin: 0px 0px 0px 8px;&quot;&gt;&lt;span style=&quot;box-sizing: border-box; font-family: Helvetica, Arial, freesans, sans-serif;&quot;&gt;&lt;font style=&quot;font-size: 12px;&quot;&gt;adresse&lt;/font&gt;&lt;/span&gt;&lt;/p&gt;&lt;p style=&quot;margin: 0px 0px 0px 8px;&quot;&gt;&lt;span style=&quot;box-sizing: border-box; font-family: Helvetica, Arial, freesans, sans-serif;&quot;&gt;&lt;font style=&quot;font-size: 12px;&quot;&gt;login&lt;/font&gt;&lt;/span&gt;&lt;/p&gt;&lt;p style=&quot;margin: 0px 0px 0px 8px;&quot;&gt;&lt;span style=&quot;box-sizing: border-box; font-family: Helvetica, Arial, freesans, sans-serif;&quot;&gt;&lt;font style=&quot;font-size: 12px;&quot;&gt;motDePasse&lt;/font&gt;&lt;/span&gt;&lt;/p&gt;&lt;p style=&quot;margin: 0px 0px 0px 8px;&quot;&gt;&lt;font style=&quot;font-size: 12px;&quot;&gt;&lt;span style=&quot;box-sizing: border-box; font-family: Helvetica, Arial, freesans, sans-serif;&quot;&gt;dateDébut&lt;/span&gt;&lt;br&gt;&lt;/font&gt;&lt;/p&gt;&lt;p style=&quot;margin: 0px 0px 0px 8px;&quot;&gt;&lt;span style=&quot;box-sizing: border-box; font-family: Helvetica, Arial, freesans, sans-serif;&quot;&gt;&lt;font style=&quot;font-size: 12px;&quot;&gt;dateDeNaissance&lt;/font&gt;&lt;/span&gt;&lt;/p&gt;" style="verticalAlign=top;align=left;overflow=fill;fontSize=12;fontFamily=Helvetica;html=1;whiteSpace=wrap;" parent="1" vertex="1"><mxGeometry x="480" y="80" width="160" height="177.5" as="geometry"/></mxCell><mxCell id="5hK_h3T2M-ArZRw3g8xw-7" value="&lt;p style=&quot;margin: 4px 0px 0px; text-align: center;&quot;&gt;&lt;b style=&quot;&quot;&gt;Concours&lt;/b&gt;&lt;/p&gt;&lt;hr&gt;&lt;p style=&quot;margin:0px;margin-left:8px;&quot;&gt;&lt;u&gt;numConcours&lt;/u&gt;&lt;/p&gt;&lt;p style=&quot;margin:0px;margin-left:8px;&quot;&gt;thème&lt;/p&gt;&lt;p style=&quot;margin:0px;margin-left:8px;&quot;&gt;dateDebut&lt;/p&gt;&lt;p style=&quot;margin:0px;margin-left:8px;&quot;&gt;dateFin&lt;/p&gt;&lt;p style=&quot;margin:0px;margin-left:8px;&quot;&gt;etat: enum= 'pas commmencé', 'en cours', 'attente', 'résultat', 'évalué'&lt;/p&gt;" style="verticalAlign=top;align=left;overflow=fill;fontSize=12;fontFamily=Helvetica;html=1;whiteSpace=wrap;" parent="1" vertex="1"><mxGeometry x="190" y="485" width="160" height="140" as="geometry"/></mxCell><mxCell id="3" style="edgeStyle=orthogonalEdgeStyle;rounded=0;orthogonalLoop=1;jettySize=auto;html=1;exitX=1;exitY=0.5;exitDx=0;exitDy=0;entryX=1;entryY=0.5;entryDx=0;entryDy=0;fontSize=12;endArrow=block;endFill=0;" edge="1" parent="1" source="5hK_h3T2M-ArZRw3g8xw-8" target="5hK_h3T2M-ArZRw3g8xw-5"><mxGeometry relative="1" as="geometry"><Array as="points"><mxPoint x="800" y="615"/><mxPoint x="800" y="169"/></Array></mxGeometry></mxCell><mxCell id="5hK_h3T2M-ArZRw3g8xw-8" value="&lt;p style=&quot;margin: 4px 0px 0px; text-align: center;&quot;&gt;&lt;b&gt;Président&lt;/b&gt;&lt;/p&gt;&lt;hr&gt;&lt;p style=&quot;margin:0px;margin-left:8px;&quot;&gt;prime&lt;/p&gt;&lt;p style=&quot;margin:0px;margin-left:8px;&quot;&gt;dateDebut&lt;/p&gt;" style="verticalAlign=top;align=left;overflow=fill;fontSize=12;fontFamily=Helvetica;html=1;whiteSpace=wrap;" parent="1" vertex="1"><mxGeometry x="592" y="585" width="140" height="60" as="geometry"/></mxCell><mxCell id="5hK_h3T2M-ArZRw3g8xw-31" style="edgeStyle=orthogonalEdgeStyle;rounded=0;orthogonalLoop=1;jettySize=auto;html=1;exitX=0;exitY=0.5;exitDx=0;exitDy=0;entryX=1;entryY=0.25;entryDx=0;entryDy=0;endArrow=block;endFill=0;" parent="1" source="5hK_h3T2M-ArZRw3g8xw-9" target="5hK_h3T2M-ArZRw3g8xw-5" edge="1"><mxGeometry relative="1" as="geometry"/></mxCell><mxCell id="5hK_h3T2M-ArZRw3g8xw-9" value="&lt;p style=&quot;margin: 4px 0px 0px; text-align: center;&quot;&gt;&lt;b&gt;Administrateur&lt;/b&gt;&lt;/p&gt;&lt;hr&gt;&lt;p style=&quot;margin:0px;margin-left:8px;&quot;&gt;dateDébut&lt;/p&gt;" style="verticalAlign=top;align=left;overflow=fill;fontSize=12;fontFamily=Helvetica;html=1;whiteSpace=wrap;" parent="1" vertex="1"><mxGeometry x="720" y="95" width="100" height="60" as="geometry"/></mxCell><mxCell id="5hK_h3T2M-ArZRw3g8xw-30" style="edgeStyle=orthogonalEdgeStyle;rounded=0;orthogonalLoop=1;jettySize=auto;html=1;exitX=1;exitY=0.5;exitDx=0;exitDy=0;entryX=0;entryY=0.25;entryDx=0;entryDy=0;endArrow=block;endFill=0;" parent="1" source="5hK_h3T2M-ArZRw3g8xw-10" target="5hK_h3T2M-ArZRw3g8xw-5" edge="1"><mxGeometry relative="1" as="geometry"/></mxCell><mxCell id="5hK_h3T2M-ArZRw3g8xw-10" value="&lt;p style=&quot;margin: 4px 0px 0px; text-align: center;&quot;&gt;&lt;b&gt;Directeur&lt;/b&gt;&lt;/p&gt;&lt;hr&gt;&lt;p style=&quot;margin:0px;margin-left:8px;&quot;&gt;&lt;u&gt;numDirecteur&lt;/u&gt;&lt;/p&gt;&lt;p style=&quot;margin:0px;margin-left:8px;&quot;&gt;dateDébut&lt;/p&gt;" style="verticalAlign=top;align=left;overflow=fill;fontSize=12;fontFamily=Helvetica;html=1;whiteSpace=wrap;" parent="1" vertex="1"><mxGeometry x="290" y="90" width="100" height="70" as="geometry"/></mxCell><mxCell id="2" style="edgeStyle=orthogonalEdgeStyle;rounded=0;orthogonalLoop=1;jettySize=auto;html=1;exitX=0.5;exitY=0;exitDx=0;exitDy=0;entryX=0.25;entryY=1;entryDx=0;entryDy=0;fontSize=12;endArrow=block;endFill=0;" edge="1" parent="1" source="5hK_h3T2M-ArZRw3g8xw-11" target="5hK_h3T2M-ArZRw3g8xw-5"><mxGeometry relative="1" as="geometry"><Array as="points"><mxPoint x="230" y="270"/><mxPoint x="520" y="270"/></Array></mxGeometry></mxCell><mxCell id="5hK_h3T2M-ArZRw3g8xw-11" value="&lt;p style=&quot;margin: 4px 0px 0px; text-align: center;&quot;&gt;&lt;b&gt;Compétiteur&lt;/b&gt;&lt;/p&gt;&lt;hr&gt;&lt;p style=&quot;margin:0px;margin-left:8px;&quot;&gt;datePremièreParticipation&lt;/p&gt;" style="verticalAlign=top;align=left;overflow=fill;fontSize=12;fontFamily=Helvetica;html=1;whiteSpace=wrap;" parent="1" vertex="1"><mxGeometry x="150" y="300" width="160" height="60" as="geometry"/></mxCell><mxCell id="5hK_h3T2M-ArZRw3g8xw-12" value="&lt;p style=&quot;margin: 4px 0px 0px; text-align: center;&quot;&gt;&lt;b&gt;Dessin&lt;/b&gt;&lt;/p&gt;&lt;hr&gt;&lt;p style=&quot;margin:0px;margin-left:8px;&quot;&gt;&lt;u&gt;numDessin&lt;/u&gt;&lt;/p&gt;&lt;p style=&quot;margin:0px;margin-left:8px;&quot;&gt;commentaire&lt;/p&gt;&lt;p style=&quot;margin:0px;margin-left:8px;&quot;&gt;classement&lt;/p&gt;&lt;p style=&quot;margin:0px;margin-left:8px;&quot;&gt;dateRemise&lt;/p&gt;&lt;p style=&quot;margin:0px;margin-left:8px;&quot;&gt;leDessin&lt;/p&gt;" style="verticalAlign=top;align=left;overflow=fill;fontSize=12;fontFamily=Helvetica;html=1;whiteSpace=wrap;" parent="1" vertex="1"><mxGeometry x="390" y="280" width="100" height="120" as="geometry"/></mxCell><mxCell id="5hK_h3T2M-ArZRw3g8xw-75" style="edgeStyle=orthogonalEdgeStyle;rounded=0;orthogonalLoop=1;jettySize=auto;html=1;exitX=0;exitY=0.5;exitDx=0;exitDy=0;endArrow=none;endFill=0;dashed=1;" parent="1" source="5hK_h3T2M-ArZRw3g8xw-13" edge="1"><mxGeometry relative="1" as="geometry"><mxPoint x="559.9999999999998" y="379.9411764705883" as="targetPoint"/></mxGeometry></mxCell><mxCell id="5hK_h3T2M-ArZRw3g8xw-13" value="&lt;p style=&quot;margin: 4px 0px 0px; text-align: center;&quot;&gt;&lt;b&gt;Evaluation&lt;/b&gt;&lt;/p&gt;&lt;hr&gt;&lt;p style=&quot;margin:0px;margin-left:8px;&quot;&gt;dateEvaluatuion&lt;/p&gt;&lt;p style=&quot;margin:0px;margin-left:8px;&quot;&gt;note&lt;/p&gt;&lt;p style=&quot;margin:0px;margin-left:8px;&quot;&gt;commentaire&lt;/p&gt;" style="verticalAlign=top;align=left;overflow=fill;fontSize=12;fontFamily=Helvetica;html=1;whiteSpace=wrap;" parent="1" vertex="1"><mxGeometry x="610" y="340" width="130" height="80" as="geometry"/></mxCell><mxCell id="5hK_h3T2M-ArZRw3g8xw-63" style="edgeStyle=orthogonalEdgeStyle;rounded=0;orthogonalLoop=1;jettySize=auto;html=1;exitX=1;exitY=0.5;exitDx=0;exitDy=0;entryX=1;entryY=0.75;entryDx=0;entryDy=0;endArrow=block;endFill=0;" parent="1" source="5hK_h3T2M-ArZRw3g8xw-14" target="5hK_h3T2M-ArZRw3g8xw-5" edge="1"><mxGeometry relative="1" as="geometry"><mxPoint x="630" y="300" as="targetPoint"/><Array as="points"><mxPoint x="780" y="520"/><mxPoint x="780" y="213"/></Array></mxGeometry></mxCell><mxCell id="5hK_h3T2M-ArZRw3g8xw-14" value="&lt;p style=&quot;margin: 4px 0px 0px; text-align: center;&quot;&gt;&lt;b&gt;Evaluateur&lt;/b&gt;&lt;/p&gt;&lt;hr&gt;&lt;p style=&quot;margin:0px;margin-left:8px;&quot;&gt;prime&lt;/p&gt;" style="verticalAlign=top;align=left;overflow=fill;fontSize=12;fontFamily=Helvetica;html=1;whiteSpace=wrap;" parent="1" vertex="1"><mxGeometry x="597" y="485" width="130" height="70" as="geometry"/></mxCell><mxCell id="5hK_h3T2M-ArZRw3g8xw-21" value="" style="endArrow=none;html=1;edgeStyle=orthogonalEdgeStyle;rounded=0;exitX=1;exitY=0.75;exitDx=0;exitDy=0;entryX=0;entryY=0.75;entryDx=0;entryDy=0;" parent="1" source="5hK_h3T2M-ArZRw3g8xw-4" target="5hK_h3T2M-ArZRw3g8xw-5" edge="1"><mxGeometry relative="1" as="geometry"><mxPoint x="180" y="270" as="sourcePoint"/><mxPoint x="340" y="270" as="targetPoint"/><Array as="points"><mxPoint x="170" y="213"/></Array></mxGeometry></mxCell><mxCell id="5hK_h3T2M-ArZRw3g8xw-22" value="&lt;font style=&quot;font-size: 16px;&quot;&gt;1&lt;/font&gt;" style="edgeLabel;resizable=0;html=1;align=left;verticalAlign=bottom;" parent="5hK_h3T2M-ArZRw3g8xw-21" connectable="0" vertex="1"><mxGeometry x="-1" relative="1" as="geometry"/></mxCell><mxCell id="5hK_h3T2M-ArZRw3g8xw-23" value="&lt;font style=&quot;font-size: 16px;&quot;&gt;*&lt;/font&gt;" style="edgeLabel;resizable=0;html=1;align=right;verticalAlign=bottom;" parent="5hK_h3T2M-ArZRw3g8xw-21" connectable="0" vertex="1"><mxGeometry x="1" relative="1" as="geometry"><mxPoint x="-8" as="offset"/></mxGeometry></mxCell><mxCell id="5hK_h3T2M-ArZRw3g8xw-25" value="Adhérents▶" style="edgeLabel;html=1;align=center;verticalAlign=middle;resizable=0;points=[];" parent="5hK_h3T2M-ArZRw3g8xw-21" vertex="1" connectable="0"><mxGeometry x="0.0495" y="8" relative="1" as="geometry"><mxPoint x="13" y="-17" as="offset"/></mxGeometry></mxCell><mxCell id="5hK_h3T2M-ArZRw3g8xw-26" value="" style="endArrow=none;html=1;edgeStyle=orthogonalEdgeStyle;rounded=0;exitX=1;exitY=0.25;exitDx=0;exitDy=0;entryX=0;entryY=0.5;entryDx=0;entryDy=0;" parent="1" source="5hK_h3T2M-ArZRw3g8xw-4" target="5hK_h3T2M-ArZRw3g8xw-10" edge="1"><mxGeometry relative="1" as="geometry"><mxPoint x="170" y="40" as="sourcePoint"/><mxPoint x="360" y="40" as="targetPoint"/></mxGeometry></mxCell><mxCell id="5hK_h3T2M-ArZRw3g8xw-27" value="&lt;font style=&quot;font-size: 16px;&quot;&gt;1&lt;/font&gt;" style="edgeLabel;resizable=0;html=1;align=left;verticalAlign=bottom;" parent="5hK_h3T2M-ArZRw3g8xw-26" connectable="0" vertex="1"><mxGeometry x="-1" relative="1" as="geometry"/></mxCell><mxCell id="5hK_h3T2M-ArZRw3g8xw-28" value="&lt;font style=&quot;font-size: 16px;&quot;&gt;1&lt;/font&gt;" style="edgeLabel;resizable=0;html=1;align=right;verticalAlign=bottom;" parent="5hK_h3T2M-ArZRw3g8xw-26" connectable="0" vertex="1"><mxGeometry x="1" relative="1" as="geometry"><mxPoint x="-8" as="offset"/></mxGeometry></mxCell><mxCell id="5hK_h3T2M-ArZRw3g8xw-29" value="Dirige" style="edgeLabel;html=1;align=center;verticalAlign=middle;resizable=0;points=[];" parent="5hK_h3T2M-ArZRw3g8xw-26" vertex="1" connectable="0"><mxGeometry x="0.0495" y="8" relative="1" as="geometry"><mxPoint x="-10" y="-7" as="offset"/></mxGeometry></mxCell><mxCell id="5hK_h3T2M-ArZRw3g8xw-32" value="" style="endArrow=none;html=1;edgeStyle=orthogonalEdgeStyle;rounded=0;exitX=0.5;exitY=1;exitDx=0;exitDy=0;entryX=0;entryY=0.5;entryDx=0;entryDy=0;" parent="1" source="5hK_h3T2M-ArZRw3g8xw-4" target="5hK_h3T2M-ArZRw3g8xw-7" edge="1"><mxGeometry relative="1" as="geometry"><mxPoint x="-150" y="430" as="sourcePoint"/><mxPoint x="180" y="430" as="targetPoint"/></mxGeometry></mxCell><mxCell id="5hK_h3T2M-ArZRw3g8xw-33" value="&lt;font style=&quot;font-size: 16px;&quot;&gt;*&lt;/font&gt;" style="edgeLabel;resizable=0;html=1;align=left;verticalAlign=bottom;" parent="5hK_h3T2M-ArZRw3g8xw-32" connectable="0" vertex="1"><mxGeometry x="-1" relative="1" as="geometry"><mxPoint x="10" y="30" as="offset"/></mxGeometry></mxCell><mxCell id="5hK_h3T2M-ArZRw3g8xw-34" value="&lt;font style=&quot;font-size: 16px;&quot;&gt;*&lt;/font&gt;" style="edgeLabel;resizable=0;html=1;align=right;verticalAlign=bottom;" parent="5hK_h3T2M-ArZRw3g8xw-32" connectable="0" vertex="1"><mxGeometry x="1" relative="1" as="geometry"><mxPoint x="-8" as="offset"/></mxGeometry></mxCell><mxCell id="5hK_h3T2M-ArZRw3g8xw-35" value="Participe▶" style="edgeLabel;html=1;align=center;verticalAlign=middle;resizable=0;points=[];" parent="5hK_h3T2M-ArZRw3g8xw-32" vertex="1" connectable="0"><mxGeometry x="0.0495" y="8" relative="1" as="geometry"><mxPoint x="-10" y="-7" as="offset"/></mxGeometry></mxCell><mxCell id="5hK_h3T2M-ArZRw3g8xw-36" value="" style="endArrow=none;html=1;edgeStyle=orthogonalEdgeStyle;rounded=0;entryX=1;entryY=0.5;entryDx=0;entryDy=0;exitX=0;exitY=0.5;exitDx=0;exitDy=0;" parent="1" source="5hK_h3T2M-ArZRw3g8xw-12" target="5hK_h3T2M-ArZRw3g8xw-11" edge="1"><mxGeometry relative="1" as="geometry"><mxPoint x="802" y="370" as="sourcePoint"/><mxPoint x="589.9999999999998" y="370" as="targetPoint"/><Array as="points"><mxPoint x="340" y="330"/><mxPoint x="340" y="330"/></Array></mxGeometry></mxCell><mxCell id="5hK_h3T2M-ArZRw3g8xw-37" value="&lt;font style=&quot;font-size: 16px;&quot;&gt;*&lt;/font&gt;" style="edgeLabel;resizable=0;html=1;align=left;verticalAlign=bottom;" parent="5hK_h3T2M-ArZRw3g8xw-36" connectable="0" vertex="1"><mxGeometry x="-1" relative="1" as="geometry"><mxPoint x="-10" y="-20" as="offset"/></mxGeometry></mxCell><mxCell id="5hK_h3T2M-ArZRw3g8xw-38" value="&lt;font style=&quot;font-size: 16px;&quot;&gt;1&lt;/font&gt;" style="edgeLabel;resizable=0;html=1;align=right;verticalAlign=bottom;" parent="5hK_h3T2M-ArZRw3g8xw-36" connectable="0" vertex="1"><mxGeometry x="1" relative="1" as="geometry"><mxPoint x="9" y="-10" as="offset"/></mxGeometry></mxCell><mxCell id="5hK_h3T2M-ArZRw3g8xw-39" value="soumet▶" style="edgeLabel;html=1;align=center;verticalAlign=middle;resizable=0;points=[];" parent="5hK_h3T2M-ArZRw3g8xw-36" vertex="1" connectable="0"><mxGeometry x="0.0495" y="8" relative="1" as="geometry"><mxPoint x="-3" y="-18" as="offset"/></mxGeometry></mxCell><mxCell id="5hK_h3T2M-ArZRw3g8xw-46" value="" style="endArrow=none;html=1;edgeStyle=orthogonalEdgeStyle;rounded=0;exitX=0.25;exitY=0;exitDx=0;exitDy=0;entryX=0.5;entryY=1;entryDx=0;entryDy=0;" parent="1" source="5hK_h3T2M-ArZRw3g8xw-7" target="5hK_h3T2M-ArZRw3g8xw-11" edge="1"><mxGeometry relative="1" as="geometry"><mxPoint x="290" y="340" as="sourcePoint"/><mxPoint x="415" y="340" as="targetPoint"/></mxGeometry></mxCell><mxCell id="5hK_h3T2M-ArZRw3g8xw-47" value="&lt;font style=&quot;font-size: 16px;&quot;&gt;*&lt;/font&gt;" style="edgeLabel;resizable=0;html=1;align=left;verticalAlign=bottom;" parent="5hK_h3T2M-ArZRw3g8xw-46" connectable="0" vertex="1"><mxGeometry x="-1" relative="1" as="geometry"/></mxCell><mxCell id="5hK_h3T2M-ArZRw3g8xw-48" value="&lt;font style=&quot;font-size: 16px;&quot;&gt;*&lt;/font&gt;" style="edgeLabel;resizable=0;html=1;align=right;verticalAlign=bottom;" parent="5hK_h3T2M-ArZRw3g8xw-46" connectable="0" vertex="1"><mxGeometry x="1" relative="1" as="geometry"><mxPoint x="-8" y="20" as="offset"/></mxGeometry></mxCell><mxCell id="5hK_h3T2M-ArZRw3g8xw-49" value="participe▶" style="edgeLabel;html=1;align=center;verticalAlign=middle;resizable=0;points=[];" parent="5hK_h3T2M-ArZRw3g8xw-46" vertex="1" connectable="0"><mxGeometry x="0.0495" y="8" relative="1" as="geometry"><mxPoint x="8" y="-3" as="offset"/></mxGeometry></mxCell><mxCell id="5hK_h3T2M-ArZRw3g8xw-51" value="" style="endArrow=none;html=1;edgeStyle=orthogonalEdgeStyle;rounded=0;exitX=0.5;exitY=1;exitDx=0;exitDy=0;entryX=0.75;entryY=0;entryDx=0;entryDy=0;" parent="1" source="5hK_h3T2M-ArZRw3g8xw-12" target="5hK_h3T2M-ArZRw3g8xw-7" edge="1"><mxGeometry relative="1" as="geometry"><mxPoint x="590" y="410" as="sourcePoint"/><mxPoint x="360" y="440" as="targetPoint"/></mxGeometry></mxCell><mxCell id="5hK_h3T2M-ArZRw3g8xw-52" value="&lt;font style=&quot;font-size: 16px;&quot;&gt;*&lt;/font&gt;" style="edgeLabel;resizable=0;html=1;align=left;verticalAlign=bottom;" parent="5hK_h3T2M-ArZRw3g8xw-51" connectable="0" vertex="1"><mxGeometry x="-1" relative="1" as="geometry"><mxPoint x="10" y="20" as="offset"/></mxGeometry></mxCell><mxCell id="5hK_h3T2M-ArZRw3g8xw-53" value="&lt;font style=&quot;font-size: 16px;&quot;&gt;1&lt;/font&gt;" style="edgeLabel;resizable=0;html=1;align=right;verticalAlign=bottom;" parent="5hK_h3T2M-ArZRw3g8xw-51" connectable="0" vertex="1"><mxGeometry x="1" relative="1" as="geometry"><mxPoint x="-8" as="offset"/></mxGeometry></mxCell><mxCell id="5hK_h3T2M-ArZRw3g8xw-54" value="◀porte sur" style="edgeLabel;html=1;align=center;verticalAlign=middle;resizable=0;points=[];" parent="5hK_h3T2M-ArZRw3g8xw-51" vertex="1" connectable="0"><mxGeometry x="0.0495" y="8" relative="1" as="geometry"><mxPoint x="-10" y="-18" as="offset"/></mxGeometry></mxCell><mxCell id="5hK_h3T2M-ArZRw3g8xw-65" value="" style="endArrow=none;html=1;edgeStyle=orthogonalEdgeStyle;rounded=0;exitX=0;exitY=0.5;exitDx=0;exitDy=0;entryX=1;entryY=0.25;entryDx=0;entryDy=0;" parent="1" source="5hK_h3T2M-ArZRw3g8xw-14" target="5hK_h3T2M-ArZRw3g8xw-7" edge="1"><mxGeometry relative="1" as="geometry"><mxPoint x="440" y="695" as="sourcePoint"/><mxPoint x="310" y="745" as="targetPoint"/></mxGeometry></mxCell><mxCell id="5hK_h3T2M-ArZRw3g8xw-66" value="&lt;font style=&quot;font-size: 16px;&quot;&gt;*&lt;/font&gt;" style="edgeLabel;resizable=0;html=1;align=left;verticalAlign=bottom;" parent="5hK_h3T2M-ArZRw3g8xw-65" connectable="0" vertex="1"><mxGeometry x="-1" relative="1" as="geometry"><mxPoint x="-20" y="-5" as="offset"/></mxGeometry></mxCell><mxCell id="5hK_h3T2M-ArZRw3g8xw-67" value="&lt;font style=&quot;font-size: 16px;&quot;&gt;*&lt;/font&gt;" style="edgeLabel;resizable=0;html=1;align=right;verticalAlign=bottom;" parent="5hK_h3T2M-ArZRw3g8xw-65" connectable="0" vertex="1"><mxGeometry x="1" relative="1" as="geometry"><mxPoint x="20" as="offset"/></mxGeometry></mxCell><mxCell id="5hK_h3T2M-ArZRw3g8xw-68" value="◀jury" style="edgeLabel;html=1;align=center;verticalAlign=middle;resizable=0;points=[];" parent="5hK_h3T2M-ArZRw3g8xw-65" vertex="1" connectable="0"><mxGeometry x="0.0495" y="8" relative="1" as="geometry"><mxPoint x="-10" y="-18" as="offset"/></mxGeometry></mxCell><mxCell id="5hK_h3T2M-ArZRw3g8xw-70" value="" style="endArrow=none;html=1;edgeStyle=orthogonalEdgeStyle;rounded=0;exitX=0.5;exitY=0;exitDx=0;exitDy=0;entryX=1;entryY=0.5;entryDx=0;entryDy=0;" parent="1" source="5hK_h3T2M-ArZRw3g8xw-14" target="5hK_h3T2M-ArZRw3g8xw-12" edge="1"><mxGeometry relative="1" as="geometry"><mxPoint x="607" y="495" as="sourcePoint"/><mxPoint x="360" y="495" as="targetPoint"/><Array as="points"><mxPoint x="662" y="450"/><mxPoint x="560" y="450"/><mxPoint x="560" y="340"/></Array></mxGeometry></mxCell><mxCell id="5hK_h3T2M-ArZRw3g8xw-71" value="&lt;font style=&quot;font-size: 16px;&quot;&gt;2&lt;/font&gt;" style="edgeLabel;resizable=0;html=1;align=left;verticalAlign=bottom;" parent="5hK_h3T2M-ArZRw3g8xw-70" connectable="0" vertex="1"><mxGeometry x="-1" relative="1" as="geometry"><mxPoint x="8" y="-5" as="offset"/></mxGeometry></mxCell><mxCell id="5hK_h3T2M-ArZRw3g8xw-72" value="&lt;font style=&quot;font-size: 16px;&quot;&gt;*&lt;/font&gt;" style="edgeLabel;resizable=0;html=1;align=right;verticalAlign=bottom;" parent="5hK_h3T2M-ArZRw3g8xw-70" connectable="0" vertex="1"><mxGeometry x="1" relative="1" as="geometry"><mxPoint x="20" as="offset"/></mxGeometry></mxCell><mxCell id="5hK_h3T2M-ArZRw3g8xw-73" value="◀évalue" style="edgeLabel;html=1;align=center;verticalAlign=middle;resizable=0;points=[];" parent="5hK_h3T2M-ArZRw3g8xw-70" vertex="1" connectable="0"><mxGeometry x="0.0495" y="8" relative="1" as="geometry"><mxPoint x="8" y="-91" as="offset"/></mxGeometry></mxCell><mxCell id="5hK_h3T2M-ArZRw3g8xw-78" value="" style="endArrow=none;html=1;edgeStyle=orthogonalEdgeStyle;rounded=0;exitX=0;exitY=0.5;exitDx=0;exitDy=0;entryX=1;entryY=0.75;entryDx=0;entryDy=0;" parent="1" source="5hK_h3T2M-ArZRw3g8xw-8" target="5hK_h3T2M-ArZRw3g8xw-7" edge="1"><mxGeometry relative="1" as="geometry"><mxPoint x="563.5" y="670" as="sourcePoint"/><mxPoint x="316.5" y="670" as="targetPoint"/></mxGeometry></mxCell><mxCell id="5hK_h3T2M-ArZRw3g8xw-79" value="&lt;font style=&quot;font-size: 16px;&quot;&gt;1&lt;/font&gt;" style="edgeLabel;resizable=0;html=1;align=left;verticalAlign=bottom;" parent="5hK_h3T2M-ArZRw3g8xw-78" connectable="0" vertex="1"><mxGeometry x="-1" relative="1" as="geometry"><mxPoint x="-20" y="-5" as="offset"/></mxGeometry></mxCell><mxCell id="5hK_h3T2M-ArZRw3g8xw-80" value="&lt;font style=&quot;font-size: 16px;&quot;&gt;*&lt;/font&gt;" style="edgeLabel;resizable=0;html=1;align=right;verticalAlign=bottom;" parent="5hK_h3T2M-ArZRw3g8xw-78" connectable="0" vertex="1"><mxGeometry x="1" relative="1" as="geometry"><mxPoint x="20" as="offset"/></mxGeometry></mxCell><mxCell id="5hK_h3T2M-ArZRw3g8xw-81" value="◀préside" style="edgeLabel;html=1;align=center;verticalAlign=middle;resizable=0;points=[];" parent="5hK_h3T2M-ArZRw3g8xw-78" vertex="1" connectable="0"><mxGeometry x="0.0495" y="8" relative="1" as="geometry"><mxPoint x="-10" y="-18" as="offset"/></mxGeometry></mxCell></root></mxGraphModel></diagram></mxfile>